<svg height="200px" width="200px" version="1.1" id="Layer_1" xmlns="http://www.w3.org/2000/svg" xmlns:xlink="http://www.w3.org/1999/xlink" viewBox="0 0 500.3 500.3" xml:space="preserve" fill="#000000"><g id="SVGRepo_bgCarrier" stroke-width="0"></g><g id="SVGRepo_tracerCarrier" stroke-linecap="round" stroke-linejoin="round"></g><g id="SVGRepo_iconCarrier"> <g> <circle style="fill:#EE5656;" cx="228" cy="275.1" r="48"></circle> <circle style="fill:#EE5656;" cx="228" cy="275.1" r="48"></circle> <path style="fill:#EE5656;" d="M228,123.1c-84,0-152,68-152,152s68,152,152,152s152-68,152-152S312,123.1,228,123.1z M228,371.1 c-52.8,0-96-43.2-96-96s43.2-96,96-96s96,43.2,96,96S280.8,371.1,228,371.1z"></path> <polygon style="fill:#EE5656;" points="433.6,28.7 434.4,54.3 408.8,79.9 408,56.7 "></polygon> <path style="fill:#EE5656;" d="M472,67.9l-28,25.6l-23.2-0.8c12.8-12.8,20.8-20.8,24.8-25.6L472,67.9z"></path> </g> <g> <path style="fill:#42210B;" d="M434.4,54.3l-0.8-25.6l-25.6,28l0.8,23.2L434.4,54.3z M444,93.5l28-25.6l-26.4-0.8 c-4.8,5.6-12,13.6-24.8,25.6L444,93.5z M497.6,66.3l-44.8,40.8c-1.6,1.6-3.2,2.4-5.6,2.4l0,0l-43.2-1.6l-20,20L228,283.1 c-1.6,1.6-4,2.4-5.6,2.4c-2.4,0-4-0.8-5.6-2.4c-3.2-3.2-3.2-8,0-11.2l144.8-144.8l32-31.2L392,54.3c0-2.4,0.8-4,2.4-5.6l40-45.6 c2.4-2.4,5.6-3.2,8.8-2.4c3.2,0.8,4.8,4,5.6,7.2l1.6,30.4l12-12c3.2-3.2,8-3.2,11.2,0s3.2,8,0,11.2l-12.8,13.6l32,1.6 c3.2,0,6.4,2.4,7.2,5.6C500.8,60.7,500,63.9,497.6,66.3z"></path> <path style="fill:#42210B;" d="M366.4,277.5c0-26.4-7.2-50.4-19.2-72c-1.6-3.2-1.6-7.2,1.6-9.6l0,0c4-4,10.4-3.2,12.8,1.6 c13.6,23.2,21.6,51.2,21.6,80c0,32-9.6,61.6-25.6,86.4c-2.4,4-8.8,4.8-12.8,1.6c-2.4-2.4-3.2-7.2-0.8-10.4 C358.4,332.7,366.4,306.3,366.4,277.5z"></path> <path style="fill:#42210B;" d="M304,247.1c-0.8-3.2-0.8-6.4,1.6-8l0.8-0.8c4-4,10.4-2.4,12.8,2.4c4.8,11.2,7.2,24,7.2,36.8 c0,48.8-33.6,89.6-79.2,100c-4.8,0.8-9.6-2.4-9.6-7.2v-0.8c0-4,2.4-6.4,6.4-7.2c38.4-9.6,66.4-44,66.4-84.8 C309.6,267.1,308,256.7,304,247.1z"></path> <path style="fill:#42210B;" d="M202.4,192.7c-2.4,0.8-5.6,0-8-2.4l0,0c-4.8-4.8-2.4-12,4-13.6c8-1.6,16-3.2,24.8-3.2 c16,0,31.2,4,44,10.4c4.8,2.4,5.6,8.8,2.4,12.8l0,0c-2.4,2.4-6.4,3.2-8.8,1.6c-11.2-5.6-24-8-36.8-8 C215.2,190.3,208.8,191.1,202.4,192.7z"></path> <path style="fill:#42210B;" d="M166.4,277.5c0-30.4,24.8-56,56-56c6.4,0,12.8,0.8,18.4,3.2c-4.8,4.8-8.8,8.8-13.6,13.6 c-1.6,0-3.2-0.8-4.8-0.8c-21.6,0-39.2,17.6-39.2,40c0,21.6,17.6,40,39.2,40c20,0,36.8-15.2,39.2-34.4l16-15.2 c0.8,3.2,0.8,7.2,0.8,10.4c0,30.4-24.8,56-56,56C192,333.5,166.4,307.9,166.4,277.5z"></path> <path style="fill:#42210B;" d="M119.2,277.5c0-32.8,16-62.4,40-81.6c3.2-2.4,8-2.4,10.4,0.8l0,0c3.2,3.2,3.2,8.8-0.8,12 c-20,16-33.6,40.8-33.6,68.8c0,39.2,26.4,72.8,62.4,83.2c3.2,0.8,6.4,4,6.4,8c0,5.6-4.8,9.6-10.4,8 C150.4,363.9,119.2,323.9,119.2,277.5z"></path> <path style="fill:#42210B;" d="M72,223.1c22.4-61.6,81.6-105.6,150.4-105.6c32,0,61.6,9.6,87.2,25.6c4,3.2,4.8,8.8,1.6,12.8l0,0 c-2.4,2.4-7.2,3.2-10.4,0.8c-22.4-14.4-49.6-23.2-78.4-23.2c-62.4,0-115.2,40-135.2,95.2c-0.8,3.2-4,5.6-7.2,5.6l0,0 C73.6,233.5,70.4,227.9,72,223.1z"></path> <path style="fill:#42210B;" d="M63.2,297.5c-0.8-4.8,3.2-8.8,8-8.8l0,0c4,0,7.2,3.2,8,7.2c9.6,70.4,69.6,125.6,143.2,125.6 c33.6,0,64.8-12,89.6-31.2c3.2-2.4,8-2.4,10.4,0.8l0,0c3.2,3.2,3.2,8.8-0.8,12c-27.2,21.6-62.4,35.2-100,35.2 C140.8,437.5,73.6,376.7,63.2,297.5z"></path> <path style="fill:#42210B;" d="M400,143.9c28,36.8,44.8,83.2,44.8,133.6c0,122.4-100,222.4-222.4,222.4C100,499.9,0,399.9,0,277.5 S100,55.1,222.4,55.1c52.8,0,100.8,18.4,139.2,48.8l-11.2,11.2c-35.2-28-79.2-44.8-128-44.8C108.8,71.1,16,163.9,16,277.5 s92.8,206.4,206.4,206.4s206.4-92.8,206.4-206.4c0-45.6-15.2-88-40-121.6L400,143.9z"></path> </g> </g></svg>